<svg xmlns="http://www.w3.org/2000/svg" viewBox="0 0 1440 320">
<path fill="#1b3366" fill-opacity="1" d="M0,160L24,144C48,128,96,96,144,117.3C192,139,240,213,288,245.3C336,277,384,267,432,234.7C480,203,528,149,576,160C624,171,672,245,720,229.3C768,213,816,107,864,64C912,21,960,43,1008,64C1056,85,1104,107,1152,133.3C1200,160,1248,192,1296,218.7C1344,245,1392,267,1416,277.3L1440,288L1440,320L1416,320C1392,320,1344,320,1296,320C1248,320,1200,320,1152,320C1104,320,1056,320,1008,320C960,320,912,320,864,320C816,320,768,320,720,320C672,320,624,320,576,320C528,320,480,320,432,320C384,320,336,320,288,320C240,320,192,320,144,320C96,320,48,320,24,320L0,320Z">
</path>
</svg>